<?xml version="1.0" standalone="no"?>
<!DOCTYPE svg PUBLIC "-//W3C//DTD SVG 20010904//EN"
 "http://www.w3.org/TR/2001/REC-SVG-20010904/DTD/svg10.dtd">
<svg version="1.0" xmlns="http://www.w3.org/2000/svg"
 width="300.000000pt" height="300.000000pt" viewBox="0 0 300.000000 300.000000"
 preserveAspectRatio="xMidYMid meet">
<metadata>
Created by potrace 1.11, written by Peter Selinger 2001-2013
</metadata>
<g transform="translate(0.000000,300.000000) scale(0.100000,-0.100000)"
fill="#000000" stroke="none">
<path d="M1452 2871 c-112 -67 -201 -138 -307 -245 -106 -107 -126 -130 -204
-236 -169 -227 -288 -471 -352 -719 -29 -111 -30 -123 -28 -325 1 -187 3 -222
25 -305 13 -51 27 -98 32 -105 5 -6 17 -31 26 -56 33 -84 108 -185 225 -300
158 -157 300 -248 508 -331 96 -37 245 -116 311 -163 l49 -36 1 273 c0 149 1
277 1 283 1 6 29 14 64 17 285 27 576 303 623 594 2 15 6 37 9 49 7 31 18 153
18 204 1 81 -21 190 -60 300 -46 131 -167 351 -239 437 -11 12 -41 49 -68 82
-27 33 -98 106 -158 162 -158 149 -285 304 -347 427 -12 23 -27 42 -35 42 -7
0 -49 -22 -94 -49z m476 -1512 c-1 -198 -4 -279 -12 -280 -68 -5 -805 -3 -816
2 -13 6 -15 47 -15 283 l0 276 210 210 210 210 211 -211 212 -212 0 -278z"/>
</g>
</svg>
